<svg width="34" height="29" viewBox="0 0 34 29" fill="none" xmlns="http://www.w3.org/2000/svg">
<path d="M25.8071 12.6865H8.19189V17.7823H25.8071V12.6865Z" fill="#97C4E8"/>
<path d="M25.8077 18.7262H8.19217C7.67101 18.7262 7.24854 18.3036 7.24854 17.7825V12.6868C7.24854 12.1657 7.67101 11.7432 8.19217 11.7432H25.8078C26.3289 11.7432 26.7514 12.1657 26.7514 12.6868V17.7825C26.7514 18.3036 26.3289 18.7262 25.8077 18.7262ZM9.1358 16.8388H24.8641V13.6304H9.1358V16.8388Z" fill="#4A5568"/>
<path d="M19.398 27.6382H14.6019C13.9246 27.6382 13.3757 27.0892 13.3757 26.412V5.3961C13.3757 5.13253 13.4607 4.87607 13.6178 4.66457L16.0158 1.43856C16.5062 0.778945 17.4938 0.778945 17.9841 1.43856L20.382 4.66457C20.5392 4.87607 20.6242 5.1326 20.6242 5.3961V26.412C20.6242 27.0893 20.0752 27.6382 19.398 27.6382Z" fill="#97C4E8"/>
<path d="M19.3979 28.5816H14.6018C13.4054 28.5816 12.4319 27.6082 12.4319 26.4118V5.3959C12.4319 4.93285 12.584 4.47312 12.8604 4.10137L15.2584 0.875365C15.6719 0.319015 16.3066 0 16.9998 0C17.693 0 18.3278 0.319081 18.7413 0.875365L21.1393 4.10137C21.4156 4.47298 21.5678 4.93285 21.5678 5.3959V26.4118C21.5678 27.6082 20.5944 28.5816 19.3979 28.5816ZM16.9999 1.88739C16.9468 1.88739 16.8468 1.90214 16.7731 2.00141L14.375 5.22742C14.3391 5.27583 14.3192 5.33567 14.3192 5.39596V26.4118C14.3192 26.5676 14.4459 26.6944 14.6018 26.6944H19.3979C19.5537 26.6944 19.6805 26.5677 19.6805 26.4118V5.3959C19.6805 5.3356 19.6607 5.27577 19.6247 5.22736L17.2267 2.00135C17.1528 1.9022 17.053 1.88739 16.9999 1.88739Z" fill="#4A5568"/>
<path d="M31.83 28.5816H27.034C25.8375 28.5816 24.864 27.6082 24.864 26.4118V5.3959C24.864 4.93285 25.0162 4.47312 25.2925 4.10137L27.6905 0.875365C28.104 0.319015 28.7387 0 29.432 0C30.1252 0 30.7599 0.319081 31.1735 0.875365L33.5715 4.10137C33.8478 4.47298 33.9999 4.93285 33.9999 5.3959V17.873C33.9999 18.3941 33.5774 18.8166 33.0563 18.8166C32.5351 18.8166 32.1126 18.3941 32.1126 17.873V5.3959C32.1126 5.33553 32.0929 5.27577 32.0569 5.22736L29.6589 2.00135C29.5851 1.90207 29.4851 1.88733 29.4321 1.88733C29.379 1.88733 29.279 1.90207 29.2053 2.00135L26.8072 5.22736C26.7713 5.27577 26.7514 5.3356 26.7514 5.3959V26.4118C26.7514 26.5676 26.8781 26.6943 27.034 26.6943H31.8301C31.9859 26.6943 32.1126 26.5676 32.1126 26.4118V23.5351C32.1126 23.014 32.5351 22.5915 33.0563 22.5915C33.5774 22.5915 33.9999 23.014 33.9999 23.5351V26.4118C33.9998 27.6082 33.0265 28.5816 31.83 28.5816Z" fill="#4A5568"/>
<path d="M6.96587 28.5816H2.16982C0.973381 28.5816 0 27.6082 0 26.4118V5.3959C0 4.93285 0.152136 4.47312 0.428452 4.10137L2.82644 0.875365C3.23995 0.319015 3.87466 0 4.56788 0C5.26109 0 5.8958 0.319081 6.30938 0.875365L8.70737 4.10137C8.98369 4.47298 9.13589 4.93285 9.13589 5.3959V17.1652C9.13589 17.6863 8.71341 18.1088 8.19226 18.1088C7.6711 18.1088 7.24863 17.6863 7.24863 17.1652V5.3959C7.24863 5.3356 7.22884 5.27577 7.19285 5.22736L4.79472 2.00135C4.72094 1.90207 4.621 1.88733 4.56794 1.88733C4.51489 1.88733 4.41488 1.90207 4.34117 2.00135L1.94304 5.22736C1.90712 5.27577 1.88726 5.3356 1.88726 5.3959V26.4118C1.88726 26.5676 2.01396 26.6943 2.16982 26.6943H6.96587C7.12166 26.6943 7.24849 26.5676 7.24849 26.4118V23.4878C7.24849 22.9668 7.67097 22.5442 8.19213 22.5442C8.71328 22.5442 9.13576 22.9668 9.13576 23.4878V26.4118C9.13582 27.6082 8.16244 28.5816 6.96587 28.5816Z" fill="#4A5568"/>
</svg>
