<svg width="34" height="34" viewBox="0 0 34 34" fill="none" xmlns="http://www.w3.org/2000/svg">
<path d="M31.9469 8.21557V4.83595C31.9469 4.05521 31.3139 3.42236 30.5333 3.42236H2.39064C1.60997 3.42236 0.977051 4.05521 0.977051 4.83595V8.21557H31.9469Z" fill="#97C4E8"/>
<path d="M31.9469 9.19259H0.977035C0.437418 9.19259 0 8.7551 0 8.21555V4.83594C0 3.51777 1.07253 2.44531 2.39062 2.44531H30.5331C31.8514 2.44531 32.9238 3.51784 32.9238 4.83594V8.21562C32.9239 8.75517 32.4865 9.19259 31.9469 9.19259ZM1.95407 7.23851H30.9698V4.83594C30.9698 4.59521 30.7739 4.39938 30.5332 4.39938H2.39062C2.1499 4.39938 1.95407 4.59521 1.95407 4.83594V7.23851Z" fill="#4A5568"/>
<path d="M9.5783 18.7541H4.97581C4.4362 18.7541 3.99878 18.3166 3.99878 17.7771V13.6755C3.99878 13.136 4.4362 12.6985 4.97581 12.6985H9.5783C10.1179 12.6985 10.5553 13.136 10.5553 13.6755C10.5553 14.2151 10.1179 14.6526 9.5783 14.6526H5.95285V16.8H9.5783C10.1179 16.8 10.5553 17.2376 10.5553 17.777C10.5553 18.3165 10.1179 18.7541 9.5783 18.7541Z" fill="#4A5568"/>
<path d="M18.7632 13.6758H14.1603V17.7774H18.7632V13.6758Z" fill="#97C4E8"/>
<path d="M18.7632 18.7541H14.1608C13.6211 18.7541 13.1837 18.3166 13.1837 17.7771V13.6755C13.1837 13.136 13.6211 12.6985 14.1608 12.6985H18.7632C19.3029 12.6985 19.7403 13.136 19.7403 13.6755V17.7771C19.7403 18.3166 19.3029 18.7541 18.7632 18.7541ZM15.1378 16.8H17.7862V14.6526H15.1378V16.8Z" fill="#4A5568"/>
<path d="M9.5783 26.9648H4.97581C4.4362 26.9648 3.99878 26.5273 3.99878 25.9878V21.8862C3.99878 21.3467 4.4362 20.9092 4.97581 20.9092H9.5783C10.1179 20.9092 10.5553 21.3467 10.5553 21.8862C10.5553 22.4257 10.1179 22.8633 9.5783 22.8633H5.95285V25.0107H9.5783C10.1179 25.0107 10.5553 25.4482 10.5553 25.9877C10.5553 26.5272 10.1179 26.9648 9.5783 26.9648Z" fill="#4A5568"/>
<path d="M18.7632 21.8857H14.1603V25.9873H18.7632V21.8857Z" fill="#97C4E8"/>
<path d="M18.7632 26.9648H14.1608C13.6211 26.9648 13.1837 26.5273 13.1837 25.9878V21.8862C13.1837 21.3467 13.6211 20.9092 14.1608 20.9092H18.7632C19.3029 20.9092 19.7403 21.3467 19.7403 21.8862V25.9878C19.7403 26.5273 19.3029 26.9648 18.7632 26.9648ZM15.1378 25.0107H17.7862V22.8633H15.1378V25.0107Z" fill="#4A5568"/>
<path d="M27.9485 13.6758H23.3456V17.7774H27.9485V13.6758Z" fill="#97C4E8"/>
<path d="M27.948 18.7539H23.3455C22.8059 18.7539 22.3685 18.3163 22.3685 17.7769V13.6753C22.3685 13.1357 22.8059 12.6982 23.3455 12.6982H27.948C28.4876 12.6982 28.925 13.1358 28.925 13.6753V17.7769C28.925 18.3163 28.4876 18.7539 27.948 18.7539ZM24.3225 16.7998H26.971V14.6523H24.3225V16.7998Z" fill="#4A5568"/>
<path d="M6.60954 6.16759C6.06993 6.16759 5.63251 5.73003 5.63251 5.19055V1.46483C5.63251 0.925277 6.06993 0.487793 6.60954 0.487793C7.14916 0.487793 7.58658 0.925344 7.58658 1.46483V5.19062C7.58658 5.73017 7.14916 6.16759 6.60954 6.16759Z" fill="#4A5568"/>
<path d="M16.4619 6.16759C15.9223 6.16759 15.4849 5.73003 15.4849 5.19055V1.46483C15.4849 0.925277 15.9223 0.487793 16.4619 0.487793C17.0015 0.487793 17.4389 0.925344 17.4389 1.46483V5.19062C17.4389 5.73017 17.0015 6.16759 16.4619 6.16759Z" fill="#4A5568"/>
<path d="M26.3143 6.16759C25.7747 6.16759 25.3373 5.73003 25.3373 5.19055V1.46483C25.3373 0.925277 25.7747 0.487793 26.3143 0.487793C26.8539 0.487793 27.2914 0.925344 27.2914 1.46483V5.19062C27.2914 5.73017 26.8539 6.16759 26.3143 6.16759Z" fill="#4A5568"/>
<path d="M25.8905 33.512C21.4188 33.512 17.7809 29.8742 17.7809 25.4025C17.7809 20.9308 21.4188 17.293 25.8905 17.293C28.331 17.293 30.6186 18.3768 32.1667 20.2666C32.5087 20.684 32.4475 21.2997 32.03 21.6416C31.6126 21.9835 30.997 21.9225 30.655 21.505C29.4796 20.0701 27.743 19.2472 25.8905 19.2472C22.4965 19.2472 19.7351 22.0085 19.7351 25.4026C19.7351 28.7967 22.4965 31.558 25.8905 31.558C29.2846 31.558 32.0459 28.7967 32.0459 25.4026C32.0459 24.8631 32.4834 24.4256 33.023 24.4256C33.5626 24.4256 34 24.8631 34 25.4026C34 29.8741 30.3621 33.512 25.8905 33.512Z" fill="#4A5568"/>
<path d="M15.1722 32.5792H2.39062C1.07246 32.5792 0 31.5067 0 30.1886V4.83594C0 3.51777 1.07253 2.44531 2.39062 2.44531H30.5331C31.8514 2.44531 32.9238 3.51784 32.9238 4.83594V15.7731C32.9238 16.3127 32.4863 16.7501 31.9467 16.7501C31.4071 16.7501 30.9697 16.3126 30.9697 15.7731V4.83594C30.9697 4.59521 30.7739 4.39938 30.5331 4.39938H2.39062C2.1499 4.39938 1.95407 4.59521 1.95407 4.83594V30.1886C1.95407 30.4293 2.1499 30.6251 2.39062 30.6251H15.1721C15.7117 30.6251 16.1491 31.0627 16.1491 31.6022C16.1491 32.1417 15.7118 32.5792 15.1722 32.5792Z" fill="#4A5568"/>
<path d="M28.5285 25.4026H25.8904V22.7646" fill="white"/>
<path d="M28.5285 26.3797H25.8905C25.3509 26.3797 24.9135 25.9422 24.9135 25.4027V22.7646C24.9135 22.2251 25.3509 21.7876 25.8905 21.7876C26.4301 21.7876 26.8675 22.2251 26.8675 22.7646V24.4256H28.5285C29.0681 24.4256 29.5055 24.8631 29.5055 25.4026C29.5055 25.9421 29.0682 26.3797 28.5285 26.3797Z" fill="#4A5568"/>
</svg>
