<svg width="56" height="56" viewBox="0 0 56 56" fill="none" xmlns="http://www.w3.org/2000/svg">
<circle cx="28" cy="28" r="28" fill="#F2F4F7" fill-opacity="0.75"/>
<g clip-path="url(#clip0_1135_396)">
<path d="M19.7182 31.1033L18.6827 34.9692L14.8977 35.0492C13.7666 32.9512 13.125 30.5508 13.125 28C13.125 25.5334 13.7249 23.2073 14.7882 21.1591H14.789L18.1587 21.7769L19.6348 25.1263C19.3258 26.027 19.1575 26.9939 19.1575 28C19.1576 29.0919 19.3554 30.1381 19.7182 31.1033Z" fill="#8689BC"/>
<path d="M42.6151 25.2212C42.7859 26.121 42.875 27.0503 42.875 28C42.875 29.065 42.763 30.1038 42.5497 31.1058C41.8256 34.5156 39.9335 37.493 37.3125 39.6001L37.3116 39.5992L33.0674 39.3827L32.4667 35.6328C34.2059 34.6129 35.5651 33.0166 36.2811 31.1058H28.327V25.2212H36.3971H42.6151Z" fill="#8689BC"/>
<path d="M37.3116 39.5992L37.3124 39.6001C34.7633 41.649 31.5251 42.875 28 42.875C22.3353 42.875 17.4102 39.7088 14.8978 35.0493L19.7183 31.1033C20.9744 34.4559 24.2085 36.8425 28 36.8425C29.6297 36.8425 31.1565 36.4019 32.4666 35.6328L37.3116 39.5992Z" fill="#8689BC"/>
<path d="M37.4947 16.5495L32.6758 20.4946C31.3199 19.6471 29.7171 19.1575 28 19.1575C24.1227 19.1575 20.8281 21.6535 19.6348 25.1263L14.789 21.1591H14.7882C17.2638 16.3861 22.251 13.125 28 13.125C31.6092 13.125 34.9185 14.4106 37.4947 16.5495Z" fill="#8689BC"/>
</g>
<defs>
<clipPath id="clip0_1135_396">
<rect width="29.75" height="29.75" fill="white" transform="translate(13.125 13.125)"/>
</clipPath>
</defs>
</svg>
