<svg width="34" height="34" viewBox="0 0 34 34" fill="none" xmlns="http://www.w3.org/2000/svg">
<rect width="34" height="34" fill="white"/>
<path d="M26.9382 33.7302C26.7183 33.7302 26.4983 33.6569 26.3173 33.51C26.0544 33.2965 19.8765 28.2185 19.8765 22.6455C19.8765 18.7516 23.0444 15.5837 26.9382 15.5837C30.8321 15.5837 34 18.7516 34 22.6455C34 23.1897 33.5588 23.6308 33.0147 23.6308C32.4707 23.6308 32.0295 23.1896 32.0295 22.6455C32.0295 19.8383 29.7456 17.5543 26.9383 17.5543C24.131 17.5543 21.8471 19.8383 21.8471 22.6455C21.8471 26.3544 25.4531 30.0626 26.9352 31.4298C27.8595 30.5696 29.6147 28.7882 30.805 26.6699C31.0716 26.1954 31.6723 26.0271 32.1467 26.2937C32.621 26.5603 32.7895 27.1609 32.5229 27.6353C30.663 30.945 27.6888 33.4039 27.5629 33.5069C27.3813 33.6557 27.1598 33.7302 26.9382 33.7302Z" fill="#4A5568"/>
<path d="M26.9378 25.122C28.3053 25.122 29.4138 24.0134 29.4138 22.6459C29.4138 21.2785 28.3053 20.1699 26.9378 20.1699C25.5703 20.1699 24.4618 21.2785 24.4618 22.6459C24.4618 24.0134 25.5703 25.122 26.9378 25.122Z" fill="#97C4E8"/>
<path d="M26.9383 26.1064C25.0299 26.1064 23.4773 24.5538 23.4773 22.6455C23.4773 20.7371 25.0299 19.1846 26.9383 19.1846C28.8466 19.1846 30.3992 20.7371 30.3992 22.6455C30.3992 24.5538 28.8466 26.1064 26.9383 26.1064ZM26.9383 21.1551C26.1164 21.1551 25.4479 21.8238 25.4479 22.6455C25.4479 23.4672 26.1164 24.1357 26.9383 24.1357C27.7601 24.1357 28.4286 23.4672 28.4286 22.6455C28.4286 21.8237 27.7601 21.1551 26.9383 21.1551Z" fill="#4A5568"/>
<path d="M10.0934 32.8285C9.66835 32.8285 9.24036 32.7525 8.82791 32.5979L2.3302 30.1613C0.936527 29.6386 0 28.2873 0 26.7986V8.25414C0 7.07649 0.577801 5.97309 1.54574 5.30232C2.51361 4.63161 3.74983 4.47795 4.85237 4.89146L9.51987 6.6418C10.0405 6.8371 10.6168 6.75442 11.0614 6.4208L18.3026 0.989761C19.2879 0.250726 20.565 0.0675112 21.7184 0.500148L28.2161 2.93679C29.6099 3.45961 30.5465 4.81091 30.5465 6.29947V11.9143C30.5465 12.4585 30.1053 12.8996 29.5612 12.8996C29.0171 12.8996 28.5759 12.4585 28.5759 11.9143V6.29954C28.5759 5.62777 28.1533 5.0179 27.5241 4.78202L21.0265 2.34538C20.5059 2.15008 19.9296 2.23289 19.4849 2.56631L12.2437 7.99741C11.2581 8.73658 9.98132 8.91966 8.82771 8.48703L4.16048 6.73669C3.65573 6.5473 3.11153 6.61484 2.66814 6.9221C2.22487 7.22929 1.97054 7.71486 1.97054 8.25421V26.7986C1.97054 27.4705 2.39315 28.0802 3.02215 28.3161L9.51987 30.7527C10.0405 30.948 10.6168 30.8653 11.0614 30.5317L18.3026 25.1007C19.2879 24.3616 20.565 24.1784 21.7184 24.6111C22.228 24.8021 22.4862 25.37 22.2951 25.8796C22.1042 26.389 21.5361 26.6473 21.0266 26.4562C20.506 26.2611 19.9297 26.3436 19.4851 26.6772L12.2439 32.1083C11.6107 32.5831 10.8571 32.8285 10.0934 32.8285Z" fill="#4A5568"/>
<path d="M20.3431 1.26074C19.8266 1.28352 19.3201 1.4585 18.8938 1.77831L11.6525 7.20935C11.1471 7.58839 10.5292 7.76464 9.91516 7.72366V31.8346C10.5292 31.8756 11.1472 31.6993 11.6525 31.3203L18.8938 25.8892C19.3201 25.5695 19.8265 25.3944 20.3431 25.3717V1.26074Z" fill="#97C4E8"/>
<path d="M10.0897 32.8256C10.0098 32.8256 9.92915 32.8229 9.84959 32.8176C9.33202 32.783 8.92993 32.3532 8.92993 31.8345V7.72351C8.92993 7.45078 9.04295 7.19027 9.24217 7.00393C9.44133 6.8176 9.70868 6.72217 9.98088 6.74037C10.3713 6.76706 10.7508 6.65404 11.0616 6.42095L18.3028 0.989919C18.8825 0.55509 19.5731 0.308325 20.2999 0.276251C20.569 0.265094 20.8303 0.362844 21.0244 0.548715C21.2186 0.734653 21.3285 0.991778 21.3285 1.26059V25.3715C21.3285 25.8988 20.9134 26.3327 20.3866 26.3558C20.0578 26.3703 19.7462 26.4814 19.4853 26.6772L12.244 32.1083C11.6272 32.5709 10.8622 32.8256 10.0897 32.8256ZM10.9006 8.62099V30.6384C10.956 30.6064 11.0097 30.5708 11.0616 30.5319L18.3028 25.1008C18.6246 24.8594 18.9806 24.676 19.3579 24.5551V2.66176L12.2439 7.99737C11.8455 8.29633 11.385 8.50837 10.9006 8.62099Z" fill="#4A5568"/>
</svg>
