<svg width="267" height="91" viewBox="0 0 267 91" fill="none" xmlns="http://www.w3.org/2000/svg">
<path d="M35.8279 53.8865C35.8779 56.5518 35.4105 59.2016 34.4516 61.6892C33.585 63.8868 32.2143 65.8504 30.45 67.4218C28.5701 69.0395 26.3709 70.244 23.9952 70.9569C21.0755 71.8169 18.0412 72.2251 14.9979 72.1671H10.6268V88.8681C10.6295 89.1336 10.5368 89.3913 10.3655 89.5942C10.1315 89.8476 9.83137 90.0307 9.49893 90.1229C8.97073 90.2813 8.42888 90.39 7.88045 90.4477C7.01885 90.5355 6.15309 90.5759 5.28706 90.5688C4.43591 90.5741 3.58508 90.5337 2.73827 90.4477C2.18332 90.3917 1.63498 90.2829 1.10067 90.1229C0.771307 90.0361 0.475887 89.8518 0.253201 89.5942C0.095195 89.3852 0.0101358 89.1301 0.0110658 88.8681V41.797C-0.0285972 41.2801 0.0386221 40.7606 0.20854 40.2707C0.378457 39.7809 0.647434 39.3313 0.998721 38.9499C1.34993 38.6271 1.76161 38.377 2.21001 38.2141C2.65841 38.0512 3.13465 37.9787 3.61123 38.0008H15.9283C17.1644 38.0008 18.3496 38.0454 19.4647 38.1409C20.8177 38.2793 22.1621 38.4919 23.4918 38.7779C25.1495 39.1243 26.7498 39.7033 28.2453 40.4977C29.7975 41.2978 31.1887 42.3775 32.3488 43.6824C33.5016 44.9786 34.3872 46.4895 34.955 48.1284C35.565 49.9857 35.8601 51.9319 35.8279 53.8865ZM24.7025 54.6572C24.7643 53.0903 24.4313 51.533 23.7339 50.1284C23.1885 49.0528 22.363 48.144 21.3444 47.4978C20.4413 46.9451 19.4356 46.5811 18.3878 46.4277C17.3323 46.2796 16.2677 46.2052 15.2019 46.2048H10.6268V63.9567H15.3994C16.8531 63.9983 18.3016 63.7649 19.6686 63.2688C20.7441 62.8645 21.7074 62.2094 22.4786 61.358C23.228 60.4993 23.792 59.4954 24.1354 58.4089C24.5267 57.1973 24.7182 55.9302 24.7025 54.6572Z" fill="#F2F4F7" fill-opacity="0.8"/>
<path d="M163.72 87.6069C163.599 88.1651 163.372 88.6949 163.051 89.1675C162.728 89.5878 162.283 89.8973 161.776 90.0528C161.068 90.2824 160.334 90.4194 159.591 90.4605C158.699 90.5242 157.564 90.5624 156.194 90.5624C154.652 90.5624 153.423 90.5242 152.492 90.4605C151.742 90.4267 151 90.2895 150.288 90.0528C149.808 89.8995 149.394 89.5872 149.115 89.1675C148.838 88.6837 148.646 88.1558 148.548 87.6069L140.175 54.4534H140.093L132.166 87.6069C132.065 88.141 131.873 88.6537 131.599 89.1229C131.323 89.5434 130.918 89.8631 130.445 90.0337C129.757 90.2837 129.036 90.4276 128.304 90.4605C127.4 90.5242 126.208 90.5624 124.723 90.5624C123.239 90.5624 121.913 90.5242 120.983 90.4605C120.233 90.4261 119.491 90.2889 118.778 90.0528C118.298 89.8995 117.885 89.5872 117.606 89.1675C117.326 88.6812 117.121 88.1549 117 87.6069L105.11 41.9627C104.906 41.2145 104.772 40.449 104.709 39.676C104.681 39.4421 104.709 39.2049 104.79 38.9836C104.87 38.7623 105.002 38.5631 105.174 38.4021C105.658 38.0563 106.236 37.8653 106.831 37.8543C107.602 37.7906 108.672 37.7588 110.017 37.7588C111.291 37.7588 112.285 37.7588 113.031 37.8161C113.601 37.8233 114.166 37.92 114.707 38.1027C115.036 38.208 115.312 38.4361 115.478 38.7397C115.638 39.1205 115.748 39.5211 115.803 39.9308L124.985 80.0017H125.023L134.581 40.2174C134.659 39.7741 134.803 39.3448 135.008 38.9435C135.219 38.6138 135.539 38.3682 135.912 38.2492C136.465 38.0424 137.044 37.918 137.633 37.8798C138.359 37.8161 139.334 37.7842 140.545 37.7842C141.756 37.7842 142.871 37.7842 143.642 37.8607C144.248 37.8859 144.847 38.0018 145.419 38.2046C145.797 38.35 146.116 38.6137 146.331 38.9562C146.546 39.3547 146.696 39.7846 146.777 40.2301L156.66 80.008H156.742L165.924 40.0582C165.982 39.6793 166.08 39.3077 166.218 38.9499C166.37 38.6191 166.644 38.3593 166.982 38.2237C167.498 38.0139 168.045 37.8891 168.601 37.8543C169.302 37.7906 170.289 37.7588 171.557 37.7588C172.825 37.7588 173.666 37.7588 174.329 37.8543C174.855 37.8729 175.359 38.0656 175.763 38.4021C175.919 38.5794 176.034 38.7889 176.1 39.0156C176.166 39.2424 176.181 39.4809 176.145 39.7142C176.07 40.5146 175.927 41.3072 175.718 42.0837L163.72 87.6069Z" fill="#F2F4F7" fill-opacity="0.8"/>
<path d="M236.717 87.6069C236.604 88.1623 236.388 88.6915 236.08 89.1675C235.756 89.586 235.311 89.895 234.806 90.0528C234.098 90.283 233.363 90.42 232.62 90.4605C231.728 90.5242 230.6 90.5624 229.224 90.5624C227.688 90.5624 226.452 90.5242 225.522 90.4605C224.771 90.4261 224.03 90.2889 223.317 90.0528C222.837 89.8995 222.423 89.5872 222.144 89.1675C221.867 88.6837 221.675 88.1558 221.577 87.6069L213.179 54.4534H213.096L205.169 87.6069C205.072 88.1418 204.88 88.655 204.602 89.1229C204.327 89.5434 203.922 89.8631 203.449 90.0337C202.761 90.2837 202.039 90.4276 201.308 90.4605C200.403 90.5242 199.212 90.5624 197.727 90.5624C196.242 90.5624 194.917 90.5242 193.987 90.4605C193.237 90.4261 192.495 90.2889 191.782 90.0528C191.303 89.8977 190.89 89.5858 190.61 89.1675C190.329 88.6812 190.125 88.1549 190.004 87.6069L178.114 41.9627C177.908 41.2146 177.772 40.4491 177.706 39.676C177.679 39.4421 177.706 39.2049 177.787 38.9836C177.868 38.7623 177.999 38.5631 178.171 38.4021C178.656 38.0563 179.233 37.8653 179.828 37.8543C180.599 37.7906 181.67 37.7588 183.046 37.7588C184.32 37.7588 185.321 37.7588 186.06 37.8161C186.63 37.8233 187.196 37.92 187.736 38.1027C188.066 38.2062 188.343 38.4348 188.507 38.7397C188.667 39.1205 188.777 39.5211 188.832 39.9308L198.014 80.0017H198.077L207.635 40.2174C207.714 39.7741 207.858 39.3448 208.062 38.9435C208.259 38.624 208.558 38.3796 208.91 38.2492C209.462 38.0424 210.042 37.918 210.63 37.8798C211.357 37.8161 212.332 37.7842 213.542 37.7842C214.753 37.7842 215.868 37.7842 216.639 37.8607C217.246 37.8852 217.845 38.0011 218.417 38.2046C218.795 38.3483 219.115 38.6125 219.328 38.9562C219.546 39.3534 219.697 39.7839 219.774 40.2301L229.644 80.0144H229.721L238.903 40.0645C238.971 39.6845 239.08 39.3129 239.228 38.9562C239.385 38.6311 239.661 38.3783 239.999 38.2492C240.514 38.0385 241.061 37.9137 241.617 37.8798C242.312 37.8161 243.299 37.7842 244.567 37.7842C245.835 37.7842 246.677 37.7842 247.339 37.8798C247.865 37.8984 248.369 38.0911 248.773 38.4276C248.93 38.6039 249.047 38.8133 249.113 39.0403C249.179 39.2674 249.193 39.5063 249.155 39.7397C249.077 40.5267 248.937 41.3063 248.735 42.0709L236.717 87.6069Z" fill="#F2F4F7" fill-opacity="0.8"/>
<path d="M266.551 88.8617C266.551 89.1268 266.458 89.3835 266.289 89.5879C266.054 89.8428 265.752 90.026 265.417 90.1165C264.889 90.2762 264.347 90.385 263.798 90.4414C262.084 90.6027 260.358 90.6027 258.643 90.4414C258.088 90.386 257.54 90.2772 257.006 90.1165C256.672 90.0276 256.371 89.844 256.139 89.5879C255.966 89.3855 255.871 89.1279 255.871 88.8617V39.453C255.871 39.1868 255.966 38.9292 256.139 38.7269C256.378 38.4702 256.685 38.2868 257.025 38.1982C257.559 38.0402 258.107 37.9336 258.662 37.8798C259.509 37.7894 260.36 37.749 261.211 37.7587C262.075 37.7482 262.939 37.7886 263.798 37.8798C264.347 37.9314 264.889 38.0381 265.417 38.1982C265.75 38.2921 266.052 38.4749 266.289 38.7269C266.458 38.9313 266.551 39.188 266.551 39.453V88.8617Z" fill="#F2F4F7" fill-opacity="0.8"/>
<path d="M82.2031 64.0204C80.8274 61.8717 78.933 60.1035 76.6942 58.8788C74.4554 57.6541 71.9444 57.0122 69.3923 57.0122C66.8402 57.0122 64.3292 57.6541 62.0904 58.8788C59.8516 60.1035 57.9572 61.8717 56.5814 64.0204L48.8777 76.0334C47.8513 77.6364 47.3681 79.5269 47.4996 81.4255C47.631 83.3242 48.3701 85.1301 49.6076 86.5765C50.8451 88.0228 52.5154 89.0327 54.3714 89.4568C56.2274 89.881 58.1707 89.6969 59.914 88.9318C62.9017 87.6204 66.1292 86.9433 69.3923 86.9433C72.6553 86.9433 75.8829 87.6204 78.8706 88.9318C80.6139 89.6969 82.5572 89.881 84.4132 89.4568C86.2692 89.0327 87.9395 88.0228 89.177 86.5765C90.4145 85.1301 91.1536 83.3242 91.285 81.4255C91.4165 79.5269 90.9333 77.6364 89.9069 76.0334L82.2031 64.0204Z" fill="#F2F4F7" fill-opacity="0.8"/>
<path d="M50.3751 62.8612C53.918 61.4981 55.4727 57.0267 53.8925 52.8737C52.3122 48.7208 48.1577 46.4596 44.5894 47.8226C41.0211 49.1857 39.4918 53.6508 41.0721 57.8038C42.6523 61.9567 46.8451 64.2243 50.3751 62.8612Z" fill="#F2F4F7" fill-opacity="0.8"/>
<path d="M64.2661 55.3387C68.8794 55.3387 72.6197 50.9501 72.6197 45.536C72.6197 40.1219 68.8985 35.7332 64.2661 35.7332C59.6336 35.7332 55.9124 40.1219 55.9124 45.536C55.9124 50.9501 59.6719 55.3387 64.2661 55.3387Z" fill="#F2F4F7" fill-opacity="0.8"/>
<path d="M79.8583 58.256C84.2359 59.7082 89.1741 56.7209 90.8818 51.5807C92.5895 46.4405 90.423 41.0964 86.0519 39.6441C81.6807 38.1919 76.736 41.1792 75.0283 46.3194C73.3207 51.4597 75.4871 56.7974 79.8583 58.256Z" fill="#F2F4F7" fill-opacity="0.8"/>
<path d="M99.7005 56.7783C96.6484 54.5234 92.0542 55.5999 89.3843 59.1732C86.7144 62.7465 87.0585 67.4855 90.1043 69.7339C93.1501 71.9824 97.7507 70.9187 100.421 67.339C103.09 63.7593 102.74 59.0331 99.7005 56.7783Z" fill="#F2F4F7" fill-opacity="0.8"/>
<path d="M158.737 20.1342C159.347 20.475 159.916 20.8854 160.432 21.3571C161.008 21.904 161.65 22.3768 162.343 22.7648C162.872 23.0197 163.452 23.1483 164.038 23.1406C164.53 23.1475 165.006 22.9728 165.377 22.6502C165.551 22.5203 165.694 22.3525 165.795 22.1594C165.895 21.9663 165.95 21.753 165.956 21.5355C165.956 20.8539 165.319 20.3635 163.994 20.0641C163.542 19.9687 163.095 19.8497 162.656 19.7074C162.178 19.5609 161.706 19.4144 161.247 19.2616C160.789 19.1087 160.349 18.9558 159.935 18.7966C159.57 18.6578 159.213 18.5005 158.864 18.3252C157.889 17.8298 157.071 17.0735 156.5 16.1405C155.913 15.2223 155.603 14.154 155.608 13.064C155.599 12.1897 155.784 11.3244 156.15 10.5302C156.516 9.7361 157.053 9.03297 157.724 8.47152C158.437 7.88598 159.254 7.44075 160.132 7.15939C161.12 6.83823 162.153 6.67905 163.191 6.68804C164.138 6.68495 165.082 6.79833 166.001 7.02563C166.817 7.21748 167.603 7.51737 168.339 7.91737C168.953 8.24139 169.493 8.68802 169.926 9.2295C170.292 9.68574 170.496 10.2502 170.506 10.8346C170.508 11.1824 170.438 11.5268 170.3 11.8459C170.162 12.1651 169.958 12.4519 169.703 12.6882C169.458 12.9357 169.166 13.1319 168.845 13.2654C168.523 13.3988 168.178 13.4667 167.83 13.4653C167.449 13.4675 167.071 13.4006 166.715 13.2678C166.219 13.0626 165.741 12.8154 165.287 12.5289C164.82 12.2517 164.335 12.0069 163.834 11.7964C163.517 11.6667 163.177 11.5976 162.834 11.5926C162.687 11.5856 162.541 11.6078 162.403 11.6582C162.265 11.7085 162.139 11.7858 162.031 11.8856C161.932 11.9704 161.853 12.076 161.799 12.1949C161.745 12.3137 161.718 12.443 161.719 12.5735C161.719 12.8253 161.79 13.0721 161.924 13.2852C162.058 13.4983 162.25 13.6689 162.477 13.7774C163.371 14.2174 164.314 14.5468 165.287 14.7583C166.294 15.0258 167.071 15.2551 167.607 15.4526C168.124 15.6355 168.63 15.8482 169.123 16.0895C170.026 16.5847 170.769 17.3271 171.264 18.2297C171.774 19.1743 172.035 20.233 172.022 21.3062C172.027 22.33 171.81 23.3427 171.385 24.2744C170.973 25.1718 170.371 25.9693 169.62 26.612C168.821 27.2905 167.897 27.8055 166.899 28.128C165.785 28.4939 164.619 28.6746 163.446 28.663C162.304 28.6682 161.168 28.5029 160.075 28.1726C159.063 27.8806 158.101 27.4383 157.22 26.8604C156.452 26.3519 155.787 25.7037 155.258 24.9496C154.788 24.3003 154.532 23.5213 154.525 22.7202C154.524 22.3382 154.599 21.9598 154.747 21.6075C154.895 21.2552 155.112 20.9361 155.385 20.6692C155.639 20.3876 155.95 20.1626 156.297 20.009C156.644 19.8553 157.019 19.7764 157.399 19.7775C157.867 19.7895 158.325 19.9117 158.737 20.1342Z" fill="#F2F4F7" fill-opacity="0.8"/>
<path d="M175.82 15.6946C175.815 14.4966 176.065 13.3111 176.553 12.2168C177.028 11.1421 177.702 10.1673 178.541 9.34415C179.388 8.52982 180.38 7.88163 181.466 7.43329C182.591 6.9579 183.8 6.71523 185.021 6.7199C187.335 6.77241 189.559 7.62304 191.317 9.12759C193.036 7.58334 195.263 6.72619 197.574 6.7199C198.817 6.71381 200.047 6.9654 201.187 7.45876C202.296 7.93251 203.303 8.61351 204.156 9.46518C205.015 10.3206 205.699 11.3353 206.17 12.4525C206.662 13.5994 206.914 14.8351 206.909 16.0831V24.5674C206.917 25.0533 206.885 25.539 206.813 26.0197C206.764 26.3678 206.659 26.7056 206.501 27.0197C206.275 27.4804 205.916 27.8623 205.469 28.1152C205.007 28.3911 204.478 28.5364 203.94 28.5356C203.395 28.5348 202.861 28.3898 202.391 28.1152C201.942 27.8782 201.573 27.5122 201.334 27.0643C201.183 26.7317 201.078 26.3803 201.021 26.0197C200.953 25.5388 200.923 25.0531 200.932 24.5674V17.166C200.94 16.594 200.917 16.022 200.862 15.4526C200.82 15.0898 200.723 14.7354 200.575 14.4016C200.342 13.8398 199.939 13.3653 199.422 13.0449C198.881 12.6974 198.249 12.5179 197.606 12.5289C197.038 12.5219 196.478 12.6694 195.987 12.9557C195.512 13.2258 195.133 13.6379 194.904 14.1341C194.706 14.5374 194.565 14.966 194.484 15.408C194.398 15.9984 194.362 16.595 194.375 17.1915V24.5674C194.381 25.053 194.352 25.5384 194.286 26.0197C194.232 26.3674 194.125 26.7048 193.968 27.0197C193.742 27.4804 193.382 27.8623 192.935 28.1152C192.473 28.3911 191.944 28.5364 191.406 28.5356C190.862 28.5348 190.327 28.3898 189.858 28.1152C189.408 27.8782 189.04 27.5122 188.8 27.0643C188.66 26.7302 188.566 26.3788 188.519 26.0197C188.451 25.5388 188.421 25.0531 188.43 24.5674V17.166C188.457 16.3253 188.367 15.4851 188.163 14.6691C187.991 14.0282 187.599 13.4686 187.054 13.0895C186.489 12.6731 185.806 12.4497 185.104 12.4525C184.438 12.441 183.785 12.6442 183.244 13.0321C182.683 13.4419 182.268 14.0199 182.058 14.6818C181.943 15.007 181.869 15.345 181.835 15.6882C181.835 16.0258 181.797 16.529 181.797 17.1787V24.5674C181.805 25.0533 181.773 25.539 181.701 26.0197C181.653 26.3678 181.547 26.7056 181.389 27.0197C181.163 27.4804 180.804 27.8623 180.357 28.1152C179.895 28.3911 179.366 28.5364 178.828 28.5356C178.284 28.5348 177.749 28.3898 177.279 28.1152C176.83 27.8782 176.461 27.5122 176.222 27.0643C176.068 26.7328 175.963 26.381 175.909 26.0197C175.841 25.5388 175.811 25.0531 175.82 24.5674V15.6946Z" fill="#F2F4F7" fill-opacity="0.8"/>
<path d="M233.047 24.5674C233.131 25.6252 232.888 26.6834 232.352 27.5993C232.09 27.924 231.751 28.1792 231.367 28.3425C230.982 28.5058 230.564 28.5721 230.148 28.5356C229.479 28.5676 228.819 28.3796 228.268 28.0006C227.725 27.543 227.325 26.9396 227.115 26.2617C225.473 27.8299 223.287 28.7019 221.017 28.6949C219.612 28.7064 218.222 28.4176 216.939 27.8477C215.69 27.3022 214.567 26.5066 213.638 25.5101C212.704 24.4848 211.965 23.2976 211.459 22.0068C210.405 19.2131 210.405 16.1315 211.459 13.3378C211.953 12.0586 212.686 10.8849 213.619 9.87918C214.541 8.89974 215.647 8.11185 216.875 7.56066C218.154 6.99179 219.54 6.70294 220.94 6.71351C222.097 6.7098 223.246 6.91478 224.33 7.31861C225.368 7.70333 226.323 8.28515 227.14 9.03203C227.296 8.38264 227.653 7.79884 228.16 7.3632C228.697 6.99296 229.343 6.8115 229.995 6.84727C230.53 6.8074 231.066 6.92032 231.54 7.1729C232.013 7.42548 232.406 7.80734 232.671 8.27405C233.003 9.06224 233.14 9.91851 233.072 10.7709L233.047 24.5674ZM219.959 12.9302C219.373 13.1972 218.845 13.5758 218.404 14.0449C217.957 14.5127 217.597 15.0562 217.34 15.65C217.075 16.2523 216.939 16.903 216.939 17.5609C216.934 18.2501 217.07 18.933 217.34 19.5673C217.596 20.1747 217.956 20.7329 218.404 21.217C218.859 21.702 219.411 22.0872 220.023 22.3482C220.635 22.6091 221.294 22.7402 221.96 22.7329C222.639 22.7392 223.312 22.6024 223.935 22.3317C224.526 22.0754 225.061 21.7053 225.509 21.2425C225.962 20.7683 226.324 20.2158 226.579 19.6119C226.844 18.9762 226.978 18.2939 226.974 17.6055C226.98 16.925 226.846 16.2507 226.579 15.6245C226.314 15.0338 225.94 14.498 225.477 14.0449C225.013 13.5787 224.464 13.2067 223.858 12.9493C223.226 12.6797 222.545 12.5431 221.858 12.548C221.205 12.5389 220.557 12.6692 219.959 12.9302Z" fill="#F2F4F7" fill-opacity="0.8"/>
<path d="M237.724 11.1467C237.712 10.5501 237.75 9.95343 237.839 9.36324C237.899 8.99219 238.013 8.6318 238.176 8.29315C238.407 7.82915 238.777 7.44849 239.234 7.20396C239.68 6.95394 240.182 6.82235 240.693 6.82179C241.271 6.8071 241.84 6.96462 242.328 7.27428C242.816 7.58395 243.201 8.03175 243.433 8.56068C244.654 7.37277 246.286 6.70189 247.989 6.68803C249.008 6.66938 249.993 7.05401 250.729 7.75811C251.095 8.09036 251.387 8.49685 251.583 8.95047C251.78 9.40409 251.878 9.89441 251.87 10.3887C251.875 10.8481 251.784 11.3036 251.603 11.7258C251.422 12.1481 251.155 12.528 250.818 12.841C250.486 13.1766 250.088 13.4406 249.65 13.617C249.212 13.7933 248.742 13.8782 248.27 13.8665C248.066 13.8665 247.887 13.8665 247.734 13.8665C247.584 13.8485 247.434 13.8187 247.288 13.7773C247.118 13.7199 246.953 13.6452 246.798 13.5544C246.619 13.4461 246.403 13.306 246.16 13.1277C245.814 12.8937 245.412 12.7552 244.994 12.7264C244.782 12.715 244.571 12.7702 244.392 12.8845C244.213 12.9987 244.073 13.1661 243.994 13.3633C243.76 14.036 243.661 14.7479 243.701 15.4589V24.5674C243.71 25.0531 243.68 25.5387 243.612 26.0196C243.56 26.3671 243.454 26.7044 243.299 27.0197C243.074 27.4804 242.714 27.8623 242.267 28.1152C241.805 28.3905 241.276 28.5357 240.738 28.5356C240.194 28.5348 239.659 28.3897 239.189 28.1152C238.74 27.8782 238.372 27.5122 238.132 27.0642C237.978 26.7327 237.873 26.381 237.82 26.0196C237.748 25.539 237.716 25.0533 237.724 24.5674V11.1467Z" fill="#F2F4F7" fill-opacity="0.8"/>
<path d="M256.636 3.96823C256.629 3.47603 256.661 2.98405 256.732 2.49687C256.78 2.14043 256.885 1.79411 257.044 1.47137C257.285 1.02581 257.653 0.662134 258.102 0.42676C258.57 0.147416 259.105 -5.20345e-05 259.65 1.37729e-08C260.18 0.00512698 260.7 0.15251 261.154 0.42676C261.602 0.662134 261.971 1.02581 262.211 1.47137C262.367 1.79524 262.473 2.14109 262.524 2.49687C262.592 2.98426 262.621 3.47621 262.613 3.96823V7.15301H263.282C264.042 7.12071 264.8 7.24203 265.512 7.50971C265.924 7.71134 266.262 8.0394 266.474 8.44603C266.72 8.8652 266.85 9.34232 266.85 9.82823C266.85 10.3141 266.72 10.7913 266.474 11.2104C266.259 11.6123 265.923 11.9357 265.512 12.134C265.213 12.2641 264.898 12.3541 264.575 12.4015C264.154 12.4673 263.728 12.4972 263.301 12.4907H262.632V24.5929C262.643 25.099 262.622 25.6054 262.568 26.1088C262.508 26.4514 262.394 26.7824 262.231 27.0897C261.967 27.5173 261.599 27.8703 261.16 28.1152C260.702 28.3904 260.178 28.5357 259.644 28.5357C259.109 28.5357 258.585 28.3904 258.127 28.1152C257.678 27.8782 257.309 27.5122 257.069 27.0643C256.916 26.7328 256.811 26.381 256.757 26.0196C256.686 25.539 256.654 25.0533 256.661 24.5674V12.4652C256.357 12.4724 256.053 12.4575 255.75 12.4206C255.535 12.3895 255.322 12.3449 255.113 12.2869C254.572 12.1532 254.098 11.83 253.775 11.376C253.448 10.9124 253.276 10.3572 253.284 9.79001C253.266 9.15016 253.494 8.52767 253.922 8.05112C254.373 7.56586 254.979 7.25096 255.636 7.15938C255.768 7.13393 255.902 7.11902 256.037 7.1148H256.674L256.636 3.96823Z" fill="#F2F4F7" fill-opacity="0.8"/>
</svg>
