<svg width="33" height="35" viewBox="0 0 33 35" fill="none" xmlns="http://www.w3.org/2000/svg">
<path d="M20.2781 13.7382C19.61 12.6946 18.6899 11.8359 17.6025 11.2411C16.5152 10.6462 15.2957 10.3345 14.0562 10.3345C12.8167 10.3345 11.5971 10.6462 10.5098 11.2411C9.42249 11.8359 8.50239 12.6946 7.83424 13.7382L4.09271 19.5727C3.59421 20.3512 3.35953 21.2694 3.42337 22.1915C3.48721 23.1136 3.84618 23.9907 4.44721 24.6932C5.04824 25.3956 5.85943 25.8861 6.76086 26.0921C7.66229 26.2981 8.6061 26.2087 9.45277 25.8371C10.9039 25.2002 12.4714 24.8714 14.0562 24.8714C15.641 24.8714 17.2085 25.2002 18.6596 25.8371C19.5062 26.2087 20.4501 26.2981 21.3515 26.0921C22.2529 25.8861 23.0641 25.3956 23.6651 24.6932C24.2662 23.9907 24.6251 23.1136 24.689 22.1915C24.7528 21.2694 24.5181 20.3512 24.0196 19.5727L20.2781 13.7382Z" fill="white"/>
<path d="M4.81997 13.1753C6.54064 12.5133 7.29575 10.3416 6.52826 8.32465C5.76077 6.30765 3.74301 5.20944 2.00996 5.87146C0.276915 6.53348 -0.465821 8.70206 0.301671 10.7191C1.06916 12.7361 3.10549 13.8374 4.81997 13.1753Z" fill="white"/>
<path d="M11.5665 9.52195C13.807 9.52195 15.6236 7.39049 15.6236 4.76097C15.6236 2.13146 13.8163 0 11.5665 0C9.3166 0 7.50928 2.13146 7.50928 4.76097C7.50928 7.39049 9.33517 9.52195 11.5665 9.52195Z" fill="white"/>
<path d="M19.1393 10.9388C21.2654 11.6441 23.6638 10.1932 24.4932 7.69674C25.3226 5.20025 24.2704 2.60476 22.1474 1.89943C20.0244 1.1941 17.6229 2.64497 16.7935 5.14147C15.9641 7.63797 17.0163 10.2304 19.1393 10.9388Z" fill="white"/>
<path d="M28.7762 10.2212C27.2938 9.12606 25.0625 9.64887 23.7658 11.3844C22.4691 13.1198 22.6363 15.4214 24.1155 16.5135C25.5948 17.6055 27.8292 17.0889 29.1259 15.3503C30.4226 13.6117 30.2524 11.3163 28.7762 10.2212Z" fill="white"/>
<circle cx="24" cy="26" r="9" fill="#97C4E8"/>
<path fill-rule="evenodd" clip-rule="evenodd" d="M30 26C30 29.3137 27.3137 32 24 32C20.6863 32 18 29.3137 18 26C18 22.6863 20.6863 20 24 20C27.3137 20 30 22.6863 30 26ZM24 30.3333C23.4477 30.3333 23 29.8856 23 29.3333V27H20.6667C20.1144 27 19.6667 26.5523 19.6667 26C19.6667 25.4477 20.1144 25 20.6667 25H23V22.6667C23 22.1144 23.4477 21.6667 24 21.6667C24.5523 21.6667 25 22.1144 25 22.6667V25H27.3333C27.8856 25 28.3333 25.4477 28.3333 26C28.3333 26.5523 27.8856 27 27.3333 27H25V29.3333C25 29.8856 24.5523 30.3333 24 30.3333Z" fill="white"/>
</svg>
