<svg width="56" height="56" viewBox="0 0 56 56" fill="none" xmlns="http://www.w3.org/2000/svg">
<circle cx="28" cy="28" r="28" fill="#F2F4F7" fill-opacity="0.75"/>
<g clip-path="url(#clip0_1135_388)">
<path d="M43.875 18.7756C42.7687 19.2609 41.5898 19.5826 40.3608 19.7388C41.6252 18.9839 42.5902 17.7976 43.0439 16.3677C41.865 17.0706 40.5635 17.567 39.1764 17.8441C38.057 16.6522 36.4617 15.9141 34.7213 15.9141C31.3447 15.9141 28.6263 18.6548 28.6263 22.0147C28.6263 22.4981 28.6672 22.963 28.7676 23.4055C23.6971 23.1582 19.2104 20.728 16.1963 17.026C15.6701 17.9389 15.3615 18.9839 15.3615 20.1088C15.3615 22.2211 16.4492 24.0935 18.0706 25.1775C17.0907 25.1589 16.1294 24.8744 15.315 24.4263C15.315 24.4449 15.315 24.469 15.315 24.4932C15.315 27.4571 17.4291 29.9189 20.2014 30.486C19.705 30.6217 19.1639 30.6868 18.6024 30.6868C18.2119 30.6868 17.8177 30.6645 17.4477 30.5827C18.2379 32.998 20.4803 34.7737 23.1467 34.8313C21.0716 36.4546 18.4369 37.4326 15.5846 37.4326C15.0844 37.4326 14.6047 37.4103 14.125 37.3489C16.8267 39.0912 20.0285 40.0859 23.4814 40.0859C34.7046 40.0859 40.8405 30.7891 40.8405 22.7305C40.8405 22.4609 40.8312 22.2006 40.8182 21.9422C42.0286 21.0831 43.0457 20.0103 43.875 18.7756Z" fill="#8689BC"/>
</g>
<defs>
<clipPath id="clip0_1135_388">
<rect width="29.75" height="29.75" fill="white" transform="translate(14.125 13.125)"/>
</clipPath>
</defs>
</svg>
